<svg width="48" height="44" fill="none" xmlns="http://www.w3.org/2000/svg"><path d="M40 .863c2.719 0 4.706.889 5.96 2.666C47.32 5.307 48 7.503 48 10.118c0 4.392-.837 8.522-2.51 12.392-1.568 3.764-3.817 7.425-6.745 10.98-2.823 3.451-6.118 6.954-9.882 10.51l-3.765-3.608c3.87-3.66 7.163-7.477 9.882-11.45 2.824-3.975 4.445-7.635 4.863-10.981a5.16 5.16 0 0 1-1.255.157h-.94c-2.197 0-4.027-.732-5.491-2.196-1.36-1.57-2.04-3.4-2.04-5.49 0-2.615.994-4.863 2.981-6.746C35.19 1.804 37.49.863 40 .863zm-25.098 0c2.719 0 4.706.889 5.96 2.666 1.36 1.778 2.04 3.974 2.04 6.589 0 4.392-.837 8.522-2.51 12.392-1.569 3.764-3.817 7.425-6.745 10.98C10.823 36.941 7.53 40.444 3.765 44L0 40.392c3.87-3.66 7.163-7.477 9.882-11.45 2.824-3.975 4.445-7.635 4.863-10.981a5.16 5.16 0 0 1-1.255.157h-.941c-2.196 0-4.026-.732-5.49-2.196-1.36-1.57-2.04-3.4-2.04-5.49 0-2.615.994-4.863 2.981-6.746C10.091 1.804 12.392.863 14.902.863z" fill="#BDA4AA"/></svg>