<svg width="48" height="44" fill="none" xmlns="http://www.w3.org/2000/svg"><path d="M8 43.137c-2.719 0-4.758-.889-6.118-2.666C.627 38.693 0 36.497 0 33.882c0-4.496.784-8.627 2.353-12.392 1.673-3.764 3.974-7.372 6.902-10.823C12.183 7.11 15.529 3.556 19.295 0l3.607 3.608c-3.87 3.555-7.163 7.372-9.882 11.45-2.72 3.975-4.34 7.635-4.863 10.981.523-.104.941-.157 1.255-.157h.94c2.197 0 3.975.785 5.334 2.353 1.464 1.464 2.196 3.242 2.196 5.334 0 2.614-1.045 4.862-3.137 6.745-1.987 1.882-4.235 2.823-6.745 2.823zm25.098 0c-2.719 0-4.758-.889-6.118-2.666-1.255-1.778-1.882-3.974-1.882-6.589 0-4.496.784-8.627 2.353-12.392 1.673-3.764 3.974-7.372 6.902-10.823C37.28 7.11 40.627 3.556 44.393 0L48 3.608c-3.87 3.555-7.163 7.372-9.882 11.45-2.72 3.975-4.34 7.635-4.863 10.981.523-.104.941-.157 1.255-.157h.941c2.196 0 3.974.785 5.333 2.353 1.464 1.464 2.196 3.242 2.196 5.334 0 2.614-1.045 4.862-3.137 6.745-1.987 1.882-4.235 2.823-6.745 2.823z" fill="#BDA4AA"/></svg>