<svg width="176" height="40" fill="none" xmlns="http://www.w3.org/2000/svg"><path stroke="url(#a)" stroke-width="2" d="M3 39h173"/><path d="M9.28 4.864c2.325 0 4.15.48 5.472 1.44 1.344.939 2.016 2.41 2.016 4.416 0 1.216-.277 2.272-.832 3.168-.555.896-1.333 1.6-2.336 2.112-.981.512-2.144.8-3.488.864l-.448-1.6c1.557.043 2.955.32 4.192.832s2.219 1.227 2.944 2.144c.725.917 1.088 2.005 1.088 3.264 0 1.152-.213 2.144-.64 2.976a5.847 5.847 0 0 1-1.728 2.016 7.93 7.93 0 0 1-2.464 1.152c-.917.235-1.867.352-2.848.352h-6.88V4.864H9.28zm.64 10.144c1.28 0 2.208-.352 2.784-1.056.576-.725.864-1.6.864-2.624 0-1.216-.373-2.101-1.12-2.656-.747-.555-1.75-.832-3.008-.832H6.432v7.168H9.92zm.128 10.112c.853 0 1.632-.128 2.336-.384.725-.256 1.29-.65 1.696-1.184.427-.533.64-1.205.64-2.016 0-.896-.245-1.6-.736-2.112-.47-.512-1.077-.875-1.824-1.088a7.639 7.639 0 0 0-2.304-.352H6.432v7.136h3.616zM23.109 4.864h3.104V28H23.11V4.864zm8.31 11.584c0-1.6.299-3.104.896-4.512a12.068 12.068 0 0 1 2.56-3.776 11.914 11.914 0 0 1 3.744-2.592c1.43-.64 2.966-.96 4.608-.96 1.622 0 3.136.32 4.544.96a11.811 11.811 0 0 1 3.776 2.592 11.812 11.812 0 0 1 2.592 3.776c.619 1.408.928 2.912.928 4.512 0 1.643-.31 3.179-.928 4.608a11.812 11.812 0 0 1-2.592 3.776 12.35 12.35 0 0 1-3.776 2.528c-1.408.597-2.922.896-4.544.896-1.642 0-3.178-.299-4.608-.896a11.987 11.987 0 0 1-3.744-2.496 11.69 11.69 0 0 1-2.56-3.744c-.597-1.43-.896-2.987-.896-4.672zm3.2.032c0 1.216.224 2.357.672 3.424a9.087 9.087 0 0 0 1.856 2.784 8.88 8.88 0 0 0 2.752 1.92c1.046.448 2.176.672 3.392.672a8.44 8.44 0 0 0 3.36-.672 8.502 8.502 0 0 0 2.72-1.92 9.393 9.393 0 0 0 1.824-2.784c.448-1.067.672-2.219.672-3.456a8.752 8.752 0 0 0-.672-3.424 8.889 8.889 0 0 0-1.856-2.848 8.448 8.448 0 0 0-2.752-1.888 8.109 8.109 0 0 0-3.36-.704c-1.216 0-2.346.235-3.392.704a8.88 8.88 0 0 0-2.752 1.92 8.463 8.463 0 0 0-1.824 2.848 9.133 9.133 0 0 0-.64 3.424zm43.79 9.536c-.32.277-.768.555-1.344.832-.576.256-1.216.49-1.92.704-.683.213-1.398.384-2.144.512-.726.128-1.408.192-2.048.192-1.856 0-3.53-.288-5.024-.864-1.472-.576-2.742-1.376-3.808-2.4a10.805 10.805 0 0 1-2.432-3.616c-.555-1.387-.832-2.89-.832-4.512 0-1.92.31-3.637.928-5.152.64-1.536 1.504-2.827 2.592-3.872a10.977 10.977 0 0 1 3.808-2.4 12.449 12.449 0 0 1 4.544-.832c1.344 0 2.592.16 3.744.48 1.152.32 2.165.725 3.04 1.216l-1.056 2.848c-.427-.256-.96-.49-1.6-.704a14.105 14.105 0 0 0-1.92-.512 8.452 8.452 0 0 0-1.856-.224c-1.366 0-2.603.213-3.712.64a7.708 7.708 0 0 0-2.848 1.792c-.79.768-1.398 1.707-1.824 2.816-.427 1.088-.64 2.315-.64 3.68 0 1.259.213 2.41.64 3.456a7.93 7.93 0 0 0 1.824 2.72c.79.747 1.728 1.333 2.816 1.76 1.11.405 2.325.608 3.648.608.79 0 1.568-.075 2.336-.224.768-.17 1.43-.405 1.984-.704v-4.608h-4.608v-2.976h7.712v9.344zM90.472 4.864c1.173 0 2.25.16 3.232.48 1.003.299 1.867.757 2.592 1.376a5.977 5.977 0 0 1 1.728 2.24c.427.875.64 1.899.64 3.072 0 .917-.139 1.813-.416 2.688a6.468 6.468 0 0 1-1.312 2.4c-.619.704-1.43 1.28-2.432 1.728-.981.427-2.197.64-3.648.64h-3.424V28h-3.104V4.864h6.144zm.32 11.648c.917 0 1.675-.139 2.272-.416.619-.277 1.099-.63 1.44-1.056.341-.448.587-.928.736-1.44.15-.512.224-.992.224-1.44 0-.47-.085-.95-.256-1.44a3.8 3.8 0 0 0-.768-1.408c-.341-.427-.8-.779-1.376-1.056-.555-.277-1.237-.416-2.048-.416h-3.584v8.672h3.36zm3.808 1.76L100.648 28h-3.584l-6.144-9.632 3.68-.096zM103.118 28 113.23 3.904h.192L123.502 28h-3.552l-7.552-19.232 2.208-1.44L106.158 28h-3.04zm5.92-8.768h8.608l1.024 2.688h-10.528l.896-2.688zm18.821-14.368h13.728V7.84h-10.624v7.392h9.312v2.944h-9.312V28h-3.104V4.864zm18.844 0h3.104V28h-3.104V4.864zM154.149 28l10.112-24.096h.192L174.533 28h-3.552l-7.552-19.232 2.208-1.44L157.189 28h-3.04zm5.92-8.768h8.608l1.024 2.688h-10.528l.896-2.688z" fill="url(#b)"/><defs><linearGradient id="a" x1="89.5" y1="40" x2="89.5" y2="41" gradientUnits="userSpaceOnUse"><stop stop-color="#856F78"/><stop offset="1" stop-color="#52454A"/></linearGradient><linearGradient id="b" x1="88" y1="0" x2="88" y2="40" gradientUnits="userSpaceOnUse"><stop stop-color="#856F78"/><stop offset="1" stop-color="#52454A"/></linearGradient></defs></svg>