<svg width="48" height="44" viewBox="0 0 48 44" fill="none" xmlns="http://www.w3.org/2000/svg">
<path d="M8 43.1373C5.28105 43.1373 3.24183 42.2484 1.88235 40.4706C0.627451 38.6928 0 36.4967 0 33.8824C0 29.3856 0.784314 25.2549 2.35294 21.4902C4.02614 17.7255 6.3268 14.1177 9.2549 10.6667C12.183 7.11111 15.5294 3.55555 19.2941 0L22.902 3.60784C19.0327 7.1634 15.7386 10.9804 13.0196 15.0588C10.3007 19.0327 8.67974 22.6928 8.15686 26.0392C8.67974 25.9347 9.09804 25.8824 9.41177 25.8824C9.72549 25.8824 10.0392 25.8824 10.3529 25.8824C12.549 25.8824 14.3268 26.6667 15.6863 28.2353C17.1503 29.6994 17.8824 31.4771 17.8824 33.5686C17.8824 36.183 16.8366 38.4314 14.7451 40.3137C12.7582 42.1961 10.5098 43.1373 8 43.1373ZM33.098 43.1373C30.3791 43.1373 28.3399 42.2484 26.9804 40.4706C25.7255 38.6928 25.098 36.4967 25.098 33.8824C25.098 29.3856 25.8824 25.2549 27.451 21.4902C29.1242 17.7255 31.4248 14.1177 34.3529 10.6667C37.281 7.11111 40.6275 3.55555 44.3922 0L48 3.60784C44.1307 7.1634 40.8366 10.9804 38.1176 15.0588C35.3987 19.0327 33.7778 22.6928 33.2549 26.0392C33.7778 25.9347 34.1961 25.8824 34.5098 25.8824C34.8235 25.8824 35.1373 25.8824 35.451 25.8824C37.6471 25.8824 39.4248 26.6667 40.7843 28.2353C42.2484 29.6994 42.9804 31.4771 42.9804 33.5686C42.9804 36.183 41.9346 38.4314 39.8431 40.3137C37.8562 42.1961 35.6078 43.1373 33.098 43.1373Z" fill="#BDA4AA"/>
</svg>
