<svg width="48" height="44" viewBox="0 0 48 44" fill="none" xmlns="http://www.w3.org/2000/svg">
<path d="M40 0.862732C42.7189 0.862732 44.7059 1.75162 45.9608 3.52939C47.3203 5.30717 48 7.50325 48 10.1176C48 14.5098 47.1634 18.6405 45.4902 22.5098C43.9216 26.2745 41.6732 29.9346 38.7451 33.4902C35.9216 36.9412 32.6274 40.4444 28.8627 44L25.098 40.3921C28.9673 36.732 32.2614 32.915 34.9804 28.9412C37.8039 24.9673 39.4248 21.3072 39.8431 17.9608C39.4248 18.0653 39.0065 18.1176 38.5882 18.1176C38.2745 18.1176 37.9608 18.1176 37.6471 18.1176C35.451 18.1176 33.6209 17.3856 32.1569 15.9215C30.7974 14.3529 30.1176 12.5229 30.1176 10.4314C30.1176 7.81697 31.1111 5.56861 33.098 3.68625C35.1895 1.80391 37.4902 0.862732 40 0.862732ZM14.902 0.862732C17.6209 0.862732 19.6078 1.75162 20.8627 3.52939C22.2222 5.30717 22.902 7.50325 22.902 10.1176C22.902 14.5098 22.0654 18.6405 20.3922 22.5098C18.8235 26.2745 16.5752 29.9346 13.6471 33.4902C10.8235 36.9412 7.52941 40.4444 3.76471 44L0 40.3921C3.86928 36.732 7.1634 32.915 9.88235 28.9412C12.7059 24.9673 14.3268 21.3072 14.7451 17.9608C14.3268 18.0653 13.9085 18.1176 13.4902 18.1176C13.1765 18.1176 12.8627 18.1176 12.549 18.1176C10.3529 18.1176 8.52288 17.3856 7.05882 15.9215C5.69935 14.3529 5.01961 12.5229 5.01961 10.4314C5.01961 7.81697 6.01307 5.56861 8 3.68625C10.0915 1.80391 12.3922 0.862732 14.902 0.862732Z" fill="#BDA4AA"/>
</svg>
