<svg width="176" height="40" viewBox="0 0 176 40" fill="none" xmlns="http://www.w3.org/2000/svg">
<line x1="3" y1="39" x2="176" y2="39" stroke="url(#paint0_linear_186_149)" stroke-width="2"/>
<path d="M9.28 4.864C11.6053 4.864 13.4293 5.344 14.752 6.304C16.096 7.24267 16.768 8.71467 16.768 10.72C16.768 11.936 16.4907 12.992 15.936 13.888C15.3813 14.784 14.6027 15.488 13.6 16C12.6187 16.512 11.456 16.8 10.112 16.864L9.664 15.264C11.2213 15.3067 12.6187 15.584 13.856 16.096C15.0933 16.608 16.0747 17.3227 16.8 18.24C17.5253 19.1573 17.888 20.2453 17.888 21.504C17.888 22.656 17.6747 23.648 17.248 24.48C16.8213 25.2907 16.2453 25.9627 15.52 26.496C14.7947 27.008 13.9733 27.392 13.056 27.648C12.1387 27.8827 11.1893 28 10.208 28H3.328V4.864H9.28ZM9.92 15.008C11.2 15.008 12.128 14.656 12.704 13.952C13.28 13.2267 13.568 12.352 13.568 11.328C13.568 10.112 13.1947 9.22667 12.448 8.672C11.7013 8.11733 10.6987 7.84 9.44 7.84H6.432V15.008H9.92ZM10.048 25.12C10.9013 25.12 11.68 24.992 12.384 24.736C13.1093 24.48 13.6747 24.0853 14.08 23.552C14.5067 23.0187 14.72 22.3467 14.72 21.536C14.72 20.64 14.4747 19.936 13.984 19.424C13.5147 18.912 12.9067 18.5493 12.16 18.336C11.4133 18.1013 10.6453 17.984 9.856 17.984H6.432V25.12H10.048ZM23.1093 4.864H26.2133V28H23.1093V4.864ZM31.4193 16.448C31.4193 14.848 31.7179 13.344 32.3153 11.936C32.9339 10.5067 33.7873 9.248 34.8753 8.16C35.9633 7.05067 37.2113 6.18667 38.6193 5.568C40.0486 4.928 41.5846 4.608 43.2273 4.608C44.8486 4.608 46.3633 4.928 47.7713 5.568C49.2006 6.18667 50.4593 7.05067 51.5473 8.16C52.6566 9.248 53.5206 10.5067 54.1393 11.936C54.7579 13.344 55.0673 14.848 55.0673 16.448C55.0673 18.0907 54.7579 19.6267 54.1393 21.056C53.5206 22.4853 52.6566 23.744 51.5473 24.832C50.4593 25.8987 49.2006 26.7413 47.7713 27.36C46.3633 27.9573 44.8486 28.256 43.2273 28.256C41.5846 28.256 40.0486 27.9573 38.6193 27.36C37.2113 26.7627 35.9633 25.9307 34.8753 24.864C33.7873 23.7973 32.9339 22.5493 32.3153 21.12C31.7179 19.6907 31.4193 18.1333 31.4193 16.448ZM34.6193 16.48C34.6193 17.696 34.8433 18.8373 35.2913 19.904C35.7393 20.9493 36.3579 21.8773 37.1473 22.688C37.9366 23.4987 38.8539 24.1387 39.8993 24.608C40.9446 25.056 42.0753 25.28 43.2913 25.28C44.4859 25.28 45.6059 25.056 46.6513 24.608C47.6966 24.1387 48.6033 23.4987 49.3713 22.688C50.1393 21.8773 50.7473 20.9493 51.1953 19.904C51.6433 18.8373 51.8673 17.6853 51.8673 16.448C51.8673 15.232 51.6433 14.0907 51.1953 13.024C50.7473 11.936 50.1286 10.9867 49.3393 10.176C48.5499 9.36533 47.6326 8.736 46.5873 8.288C45.5419 7.81867 44.4219 7.584 43.2273 7.584C42.0113 7.584 40.8806 7.81867 39.8353 8.288C38.7899 8.75733 37.8726 9.39733 37.0833 10.208C36.2939 11.0187 35.6859 11.968 35.2593 13.056C34.8326 14.1227 34.6193 15.264 34.6193 16.48ZM78.4088 26.016C78.0888 26.2933 77.6408 26.5707 77.0648 26.848C76.4888 27.104 75.8488 27.3387 75.1448 27.552C74.4621 27.7653 73.7474 27.936 73.0008 28.064C72.2754 28.192 71.5928 28.256 70.9528 28.256C69.0968 28.256 67.4221 27.968 65.9288 27.392C64.4568 26.816 63.1874 26.016 62.1208 24.992C61.0754 23.968 60.2648 22.7627 59.6888 21.376C59.1341 19.9893 58.8568 18.4853 58.8568 16.864C58.8568 14.944 59.1661 13.2267 59.7848 11.712C60.4248 10.176 61.2888 8.88533 62.3768 7.84C63.4861 6.77333 64.7554 5.97333 66.1848 5.44C67.6141 4.88533 69.1288 4.608 70.7288 4.608C72.0728 4.608 73.3208 4.768 74.4728 5.088C75.6248 5.408 76.6381 5.81333 77.5128 6.304L76.4568 9.152C76.0301 8.896 75.4968 8.66133 74.8568 8.448C74.2381 8.23467 73.5981 8.064 72.9368 7.936C72.2754 7.78667 71.6568 7.712 71.0808 7.712C69.7154 7.712 68.4781 7.92533 67.3688 8.352C66.2594 8.75733 65.3101 9.35467 64.5208 10.144C63.7314 10.912 63.1234 11.8507 62.6968 12.96C62.2701 14.048 62.0568 15.2747 62.0568 16.64C62.0568 17.8987 62.2701 19.0507 62.6968 20.096C63.1234 21.1413 63.7314 22.048 64.5208 22.816C65.3101 23.5627 66.2488 24.1493 67.3368 24.576C68.4461 24.9813 69.6621 25.184 70.9848 25.184C71.7741 25.184 72.5528 25.1093 73.3208 24.96C74.0888 24.7893 74.7501 24.5547 75.3048 24.256V19.648H70.6968V16.672H78.4088V26.016ZM90.472 4.864C91.6453 4.864 92.7227 5.024 93.704 5.344C94.7067 5.64267 95.5707 6.10133 96.296 6.72C97.0427 7.31733 97.6187 8.064 98.024 8.96C98.4507 9.83467 98.664 10.8587 98.664 12.032C98.664 12.9493 98.5253 13.8453 98.248 14.72C97.992 15.5947 97.5547 16.3947 96.936 17.12C96.3173 17.824 95.5067 18.4 94.504 18.848C93.5227 19.2747 92.3067 19.488 90.856 19.488H87.432V28H84.328V4.864H90.472ZM90.792 16.512C91.7093 16.512 92.4667 16.3733 93.064 16.096C93.6827 15.8187 94.1627 15.4667 94.504 15.04C94.8453 14.592 95.0907 14.112 95.24 13.6C95.3893 13.088 95.464 12.608 95.464 12.16C95.464 11.6907 95.3787 11.2107 95.208 10.72C95.0587 10.208 94.8027 9.73867 94.44 9.312C94.0987 8.88533 93.64 8.53333 93.064 8.256C92.5093 7.97867 91.8267 7.84 91.016 7.84H87.432V16.512H90.792ZM94.6 18.272L100.648 28H97.064L90.92 18.368L94.6 18.272ZM103.118 28L113.23 3.904H113.422L123.502 28H119.95L112.398 8.768L114.606 7.328L106.158 28H103.118ZM109.038 19.232H117.646L118.67 21.92H108.142L109.038 19.232ZM127.859 4.864H141.587V7.84H130.963V15.232H140.275V18.176H130.963V28H127.859V4.864ZM146.703 4.864H149.807V28H146.703V4.864ZM154.149 28L164.261 3.904H164.453L174.533 28H170.981L163.429 8.768L165.637 7.328L157.189 28H154.149ZM160.069 19.232H168.677L169.701 21.92H159.173L160.069 19.232Z" fill="url(#paint1_linear_186_149)"/>
<defs>
<linearGradient id="paint0_linear_186_149" x1="89.5" y1="40" x2="89.5" y2="41" gradientUnits="userSpaceOnUse">
<stop stop-color="#856F78"/>
<stop offset="1" stop-color="#52454A"/>
</linearGradient>
<linearGradient id="paint1_linear_186_149" x1="88" y1="0" x2="88" y2="40" gradientUnits="userSpaceOnUse">
<stop stop-color="#856F78"/>
<stop offset="1" stop-color="#52454A"/>
</linearGradient>
</defs>
</svg>
